<svg xmlns="http://www.w3.org/2000/svg" viewBox="0 0 494.54 86.17">
  <g id="Layer_2" data-name="Layer 2">
    <g id="Content">
      <g>
        <g>
          <path d="M22.52,26.31h0a22.8,22.8,0,0,0-2.92.1,13.07,13.07,0,0,0-2.5.72,15.46,15.46,0,0,0-5.79,4.06A16.12,16.12,0,0,0,7.82,37.5a13.83,13.83,0,0,0-.49,2.82A12.07,12.07,0,0,0,7.4,43.1a12.16,12.16,0,0,0,1.34,3.56,32,32,0,0,0,3.17,4.85c1.41,1.92,3.11,4,4.71,5.8,1,1.08,1.83,2,2.56,2.77.53.56,1.34,1.41,2.42,2.52H16.54l-5-6a5.8,5.8,0,0,0-10,2L0,63.93H22.88c.86,0,1.6-.08,2.22-.14a15.52,15.52,0,0,0,1.69-.31A10.35,10.35,0,0,0,28.3,63a15.44,15.44,0,0,0,5.76-4.11,15.87,15.87,0,0,0,3.5-6.22,10.61,10.61,0,0,0,.38-5.07A10.56,10.56,0,0,0,35.66,43l-12-15.39h5l3.86,5a5.79,5.79,0,0,0,10.14-1.92L44,26.31Z" fill="#313c5c"/>
          <path d="M90.7,32.26a7.29,7.29,0,0,0-3.32-4.42,12.86,12.86,0,0,0-6.54-1.53H47.14v1.33h4.14L40.62,63.93H58.56L69.21,27.64h6.28L69.15,49.23a11.46,11.46,0,0,0,11,14.7H87V62.6H83.39l7-23.71A12.42,12.42,0,0,0,90.7,32.26Z" fill="#313c5c"/>
          <path d="M191,42.3l10.71-16h-8a6,6,0,0,0-5.93,6.55l1.07,10.7-8.15,13.12-.27.61,3.81-31H163.89v1.33h3.46l-1.79,18-6.19,9L161,39.22a11.7,11.7,0,0,0-11.63-12.91h-9.94v1.33h4l-2.25,36.29h13.14l4.77-6.9v-.1l6.2-8.92-1.58,15.92h13.73l1-1.55Z" fill="#313c5c"/>
          <path d="M136.67,37.43a13.3,13.3,0,0,0-2-6.14,10.93,10.93,0,0,0-4.62-4,16.09,16.09,0,0,0-6.68-1.4h-6.6a20.17,20.17,0,0,0-7.35,1.43,25.6,25.6,0,0,0-6.87,4.07,28.58,28.58,0,0,0-5.6,6.14,27.08,27.08,0,0,0-3.55,7.52,18.74,18.74,0,0,0-.48,9.72,11.67,11.67,0,0,0,4.42,6.89,13.72,13.72,0,0,0,8.33,2.5h6.48A21.85,21.85,0,0,0,122,61.72a27.33,27.33,0,0,0,13.71-16.58A21.4,21.4,0,0,0,136.67,37.43ZM112.52,62.86h-6.47l10.46-35.61H123Z" fill="#313c5c"/>
        </g>
        <g>
          <g>
            <path d="M381.37,45.68l-3.65-4.58-.16,0h-.17a12.1,12.1,0,0,1-5.7-1.34A10.26,10.26,0,0,1,367.64,36a11.26,11.26,0,0,1-.1-11.09,10.5,10.5,0,0,1,4-4,11.48,11.48,0,0,1,5.85-1.5,12,12,0,0,1,5.7,1.35,10.22,10.22,0,0,1,4.06,3.82,10.71,10.71,0,0,1,1.51,5.69,10.62,10.62,0,0,1-1.55,5.63,10.46,10.46,0,0,1-4.29,3.93l5.1,5.84Zm-4-9.4a5.55,5.55,0,0,0,2.85-.74,5.26,5.26,0,0,0,2-2.1,6.35,6.35,0,0,0,.74-3.13,6.69,6.69,0,0,0-.68-3.07,5.28,5.28,0,0,0-2-2.17,5.88,5.88,0,0,0-5.8-.05,5.3,5.3,0,0,0-2,2.09,6.5,6.5,0,0,0-.74,3.14,6.73,6.73,0,0,0,.69,3.07,5.27,5.27,0,0,0,2,2.17A5.44,5.44,0,0,0,377.39,36.28Z" fill="#313c5c"/>
            <path d="M398.31,41.13a7,7,0,0,1-5.1-1.7,6.58,6.58,0,0,1-1.76-5V26.55h4.94v7.79a2.92,2.92,0,0,0,.46,1.82,1.79,1.79,0,0,0,1.48.59,1.66,1.66,0,0,0,1.41-.58,2.89,2.89,0,0,0,.46-1.83V26.55h4.93v7.92a6.65,6.65,0,0,1-1.74,5A7,7,0,0,1,398.31,41.13Z" fill="#313c5c"/>
            <path d="M414.15,41.13a6,6,0,0,1-3.29-.92,6.31,6.31,0,0,1-2.3-2.61,9.34,9.34,0,0,1,0-7.72,6.84,6.84,0,0,1,2.33-2.74,5.9,5.9,0,0,1,3.42-1,5.09,5.09,0,0,1,2.33.55,4.29,4.29,0,0,1,1.7,1.54l.06-1.65H423V40.69h-4.63l-.06-1.61a4.27,4.27,0,0,1-1.71,1.52A5.54,5.54,0,0,1,414.15,41.13Zm1.34-4.38a2.68,2.68,0,0,0,2.06-.88,3.2,3.2,0,0,0,.79-2.25,3.24,3.24,0,0,0-.79-2.25,2.67,2.67,0,0,0-2.06-.87,2.7,2.7,0,0,0-2.07.87,3.2,3.2,0,0,0-.81,2.25,3.17,3.17,0,0,0,.81,2.25A2.71,2.71,0,0,0,415.49,36.75Z" fill="#313c5c"/>
            <path d="M426.34,26.55h4.83l.05,1.76a3.66,3.66,0,0,1,1.59-1.62,5.09,5.09,0,0,1,2.47-.58A4.51,4.51,0,0,1,439,27.63a6.91,6.91,0,0,1,1.24,4.46v8.6h-4.93V33q0-2.52-1.89-2.52a1.84,1.84,0,0,0-1.56.7,3.15,3.15,0,0,0-.55,2v7.48h-4.94Z" fill="#313c5c"/>
            <path d="M444.76,30.52h-2.38v-4h2.38V22.91h4.94v3.64h2.9v4h-2.9V40.69h-4.94Z" fill="#313c5c"/>
            <path d="M462,41.13a7,7,0,0,1-5.1-1.7,6.58,6.58,0,0,1-1.75-5V26.55h4.93v7.79a2.92,2.92,0,0,0,.47,1.82,1.78,1.78,0,0,0,1.48.59,1.66,1.66,0,0,0,1.41-.58,3,3,0,0,0,.45-1.83V26.55h4.93v7.92a6.65,6.65,0,0,1-1.74,5A7,7,0,0,1,462,41.13Z" fill="#313c5c"/>
            <path d="M472.09,26.55h4.79l.06,1.73a3.77,3.77,0,0,1,1.6-1.61,5.27,5.27,0,0,1,2.48-.56,4.68,4.68,0,0,1,2.44.61,4.21,4.21,0,0,1,1.65,1.72,4.18,4.18,0,0,1,1.75-1.71,5.56,5.56,0,0,1,2.66-.62,4.62,4.62,0,0,1,3.74,1.52,6.8,6.8,0,0,1,1.28,4.46v8.6h-4.91V33a3.28,3.28,0,0,0-.45-1.91,1.63,1.63,0,0,0-1.41-.61,1.72,1.72,0,0,0-1.48.7,3.28,3.28,0,0,0-.53,2v7.48h-4.9V33a3.28,3.28,0,0,0-.45-1.91A1.61,1.61,0,0,0,479,30.5a1.76,1.76,0,0,0-1.51.7,3.35,3.35,0,0,0-.52,2v7.48h-4.9Z" fill="#313c5c"/>
          </g>
          <g>
            <path d="M368.24,53.77h5.64a8.39,8.39,0,0,1,3.6.74,5.63,5.63,0,0,1,2.43,2.14,6,6,0,0,1,.88,3.29,5.86,5.86,0,0,1-1.93,4.62,7.65,7.65,0,0,1-5.25,1.71h-3.73V74.6h-1.64Zm1.64,11h3.46a6.48,6.48,0,0,0,4.26-1.23,5,5,0,0,0,0-7.06,5.88,5.88,0,0,0-4-1.25h-3.76Z" fill="#313c5c"/>
            <path d="M389.81,75a6.53,6.53,0,0,1-3.37-.89,6.34,6.34,0,0,1-2.4-2.52,7.69,7.69,0,0,1-.89-3.72,7.46,7.46,0,0,1,.86-3.53,7,7,0,0,1,2.43-2.62,6.34,6.34,0,0,1,3.51-1,6.24,6.24,0,0,1,3.11.8,5.66,5.66,0,0,1,2.18,2.16l.05-2.52h1.54V74.6h-1.54l-.05-2.52a5.51,5.51,0,0,1-2.18,2.18A6.62,6.62,0,0,1,389.81,75Zm.27-1.42a5,5,0,0,0,4.58-2.7,6.12,6.12,0,0,0,.71-3,6.42,6.42,0,0,0-.65-2.89A5.19,5.19,0,0,0,392.85,63a5.05,5.05,0,0,0-2.77-.76,5.18,5.18,0,0,0-2.66.7,5,5,0,0,0-1.91,2,6.17,6.17,0,0,0-.72,3,6.35,6.35,0,0,0,.65,2.88,5,5,0,0,0,4.64,2.83Z" fill="#313c5c"/>
            <path d="M406.23,73.7l-6-12.5H402l5.07,10.74,4.74-10.74h1.67l-9.18,20.12h-1.67Z" fill="#313c5c"/>
            <path d="M416.92,61.2h1.5v2.66A4.92,4.92,0,0,1,422.84,61a3.44,3.44,0,0,1,1.5.27l-.16,1.48a5,5,0,0,0-1.56-.27,3.51,3.51,0,0,0-3,1.53,7.23,7.23,0,0,0-1.1,4.25V74.6h-1.58Z" fill="#313c5c"/>
            <path d="M433.17,75a6.93,6.93,0,0,1-3.48-.89,6.67,6.67,0,0,1-2.51-2.52,7.64,7.64,0,0,1-.07-7.25,7.05,7.05,0,0,1,2.47-2.62,6.56,6.56,0,0,1,3.59-1,6.93,6.93,0,0,1,3.48.89,6.82,6.82,0,0,1,2.51,2.52,7.72,7.72,0,0,1,.07,7.25A7.05,7.05,0,0,1,436.76,74,6.58,6.58,0,0,1,433.17,75Zm0-1.42a5.28,5.28,0,0,0,2.66-.7,5.13,5.13,0,0,0,1.92-2,6.28,6.28,0,0,0,.71-3,6.35,6.35,0,0,0-.65-2.88,5,5,0,0,0-4.64-2.82,5.16,5.16,0,0,0-2.66.7,5,5,0,0,0-1.92,2,6.28,6.28,0,0,0-.71,3,6.35,6.35,0,0,0,.64,2.88,5,5,0,0,0,4.65,2.83Z" fill="#313c5c"/>
            <path d="M444.35,52.4h1.59V74.6h-1.59Z" fill="#313c5c"/>
            <path d="M451.2,52.4h1.59V74.6H451.2Z" fill="#313c5c"/>
          </g>
          <path d="M347.46,27.14a21.71,21.71,0,0,0-3.28-10,17.78,17.78,0,0,0-7.53-6.46,25.92,25.92,0,0,0-10.87-2.28H315a32.76,32.76,0,0,0-12,2.33,41.33,41.33,0,0,0-11.19,6.62,46.92,46.92,0,0,0-9.11,10A44.2,44.2,0,0,0,277,39.58a30.35,30.35,0,0,0-.78,15.83,18.92,18.92,0,0,0,7.19,11.21,22.36,22.36,0,0,0,13.54,4.07l-.75,2.68a9.86,9.86,0,0,0,9.41,12.8h14.68L307.61,70.69a35.68,35.68,0,0,0,16-4,44.53,44.53,0,0,0,22.32-27A34.87,34.87,0,0,0,347.46,27.14ZM307.53,70.59l-7.74-9.47,14.84-50.57h10.52Z" fill="#313c5c"/>
        </g>
        <line x1="238.25" x2="238.25" y2="86.17" fill="#57e4dc" stroke="#57e4dc" stroke-miterlimit="10" stroke-width="2"/>
      </g>
    </g>
  </g>
</svg>
